<svg width="25" height="20" viewBox="0 0 25 20" fill="none" xmlns="http://www.w3.org/2000/svg">
<path d="M24.7059 2.37236C23.7973 2.77326 22.8213 3.04414 21.7953 3.16658C22.854 2.53575 23.646 1.5429 24.0237 0.373289C23.029 0.961624 21.9404 1.37575 20.8051 1.59766C20.0417 0.78596 19.0305 0.247955 17.9286 0.0671694C16.8267 -0.113617 15.6956 0.0729309 14.7111 0.59785C13.7265 1.12277 12.9435 1.95669 12.4837 2.97014C12.0238 3.98359 11.9129 5.11988 12.168 6.20257C10.1525 6.1018 8.18085 5.58015 6.38095 4.67147C4.58105 3.76279 2.99313 2.48739 1.72025 0.928046C1.28502 1.67567 1.03476 2.54248 1.03476 3.46563C1.03428 4.29667 1.23979 5.11499 1.63307 5.84798C2.02635 6.58096 2.59524 7.20594 3.28926 7.66748C2.48438 7.64198 1.69726 7.42541 0.993415 7.03579V7.1008C0.993334 8.26638 1.39822 9.39609 2.13936 10.2982C2.8805 11.2004 3.91226 11.8194 5.05956 12.0503C4.3129 12.2515 3.53009 12.2811 2.77025 12.137C3.09395 13.1399 3.72448 14.0169 4.57359 14.6452C5.42269 15.2735 6.44786 15.6217 7.50556 15.641C5.71005 17.0446 3.49261 17.806 1.20994 17.8026C0.805592 17.8027 0.401584 17.7792 0 17.7322C2.31703 19.2157 5.01423 20.003 7.76887 20C17.0937 20 22.1913 12.3092 22.1913 5.63915C22.1913 5.42245 22.1859 5.20358 22.1761 4.98687C23.1677 4.27281 24.0236 3.38858 24.7037 2.37562L24.7059 2.37236Z" fill="white"/>
</svg>
