<svg width="44" height="44" viewBox="0 0 44 44" fill="none" xmlns="http://www.w3.org/2000/svg">
<g id="Frame 376">
<path id="Subtract" fill-rule="evenodd" clip-rule="evenodd" d="M22 44C34.1503 44 44 34.1503 44 22C44 9.84974 34.1503 0 22 0C9.84974 0 0 9.84974 0 22C0 34.1503 9.84974 44 22 44ZM18.2987 16.2929C18.1097 16.4804 18.0035 16.7348 18.0035 17C18.0035 17.2652 18.1097 17.5196 18.2987 17.7071C18.4877 17.8946 18.7441 18 19.0114 18H24.6418L16.2829 26.293C16.0993 26.4816 15.9977 26.7342 16 26.9964C16.0023 27.2586 16.1083 27.5094 16.2952 27.6948C16.4821 27.8802 16.7349 27.9854 16.9992 27.9877C17.2635 27.99 17.5181 27.8892 17.7082 27.707L26.067 19.414V25C26.067 25.2652 26.1732 25.5196 26.3622 25.7071C26.5512 25.8946 26.8076 26 27.0749 26C27.3422 26 27.5986 25.8946 27.7876 25.7071C27.9767 25.5196 28.0829 25.2652 28.0829 25V17C28.0829 16.7348 27.9767 16.4804 27.7876 16.2929C27.5986 16.1054 27.3422 16 27.0749 16H19.0114C18.7441 16 18.4877 16.1054 18.2987 16.2929Z" fill="white"/>
</g>
</svg>
