<svg width="42" height="42" viewBox="0 0 42 42" fill="none" xmlns="http://www.w3.org/2000/svg">
<circle cx="21" cy="21" r="21" fill="#212121"/>
<path fill-rule="evenodd" clip-rule="evenodd" d="M11 21.0558C11 26.0275 14.6108 30.1617 19.3333 31V23.7775H16.8333V21H19.3333V18.7775C19.3333 16.2775 20.9442 14.8892 23.2225 14.8892C23.9442 14.8892 24.7225 15 25.4442 15.1108V17.6667H24.1667C22.9442 17.6667 22.6667 18.2775 22.6667 19.0558V21H25.3333L24.8892 23.7775H22.6667V31C27.3892 30.1617 31 26.0283 31 21.0558C31 15.525 26.5 11 21 11C15.5 11 11 15.525 11 21.0558Z" fill="white"/>
</svg>
