<svg width="45" height="45" viewBox="0 0 45 45" fill="none" xmlns="http://www.w3.org/2000/svg">
<g id="Frame">
<path id="Vector" fill-rule="evenodd" clip-rule="evenodd" d="M22.5 9C15.0443 9 9 15.0443 9 22.5C9 29.9557 15.0443 36 22.5 36C29.9557 36 36 29.9557 36 22.5C36 15.0443 29.9557 9 22.5 9ZM10.8569 21.8864H16.6803C16.803 18.1591 18.0303 15.1486 19.249 13.0451C19.7276 12.2204 20.2062 11.5319 20.6223 10.9919C15.2714 11.8583 11.1428 16.3636 10.8569 21.8864ZM16.711 23.7273H10.9047C11.1745 26.2688 12.2716 28.6514 14.0272 30.5088C15.7829 32.3663 18.0999 33.5957 20.6223 34.0081C20.1211 33.3538 19.6623 32.668 19.249 31.9549C18.0978 29.968 16.9405 27.1722 16.711 23.7273ZM18.5568 23.7273H26.4432C26.2186 26.7709 25.1914 29.25 24.158 31.0308C23.5739 32.0371 22.9921 32.8165 22.5577 33.338L22.5 33.4105L22.4423 33.3405C21.8463 32.6167 21.311 31.845 20.842 31.0332C19.8086 29.25 18.7801 26.7685 18.5568 23.7273ZM26.4776 21.8864H18.5224C18.6451 18.5629 19.7399 15.8678 20.842 13.9692C21.4261 12.9629 22.0079 12.1835 22.4423 11.662L22.5 11.5895L22.5577 11.6595C22.9909 12.1823 23.5739 12.9604 24.158 13.9668C25.2601 15.8666 26.3549 18.5617 26.4776 21.8851V21.8864ZM28.289 23.7273C28.0608 27.1722 26.9022 29.968 25.751 31.9549C25.2724 32.7796 24.7938 33.4681 24.379 34.0081C26.9008 33.5952 29.2174 32.3656 30.9725 30.5082C32.7277 28.6508 33.8244 26.2685 34.094 23.7273H28.289ZM34.1431 21.8864H28.3197C28.197 18.1591 26.9697 15.1486 25.751 13.0451C25.2724 12.2204 24.7938 11.5319 24.3777 10.9919C29.7286 11.8583 33.8572 16.3636 34.1431 21.8864Z" fill="white"/>
</g>
</svg>
