<svg width="42" height="42" viewBox="0 0 42 42" fill="none" xmlns="http://www.w3.org/2000/svg">
<circle cx="21" cy="21" r="21" fill="#212121"/>
<path fill-rule="evenodd" clip-rule="evenodd" d="M11 12.6709C11 12.2278 11.176 11.8028 11.4894 11.4894C11.8028 11.176 12.2278 11 12.6709 11H29.3273C29.5469 10.9996 29.7644 11.0426 29.9674 11.1264C30.1704 11.2102 30.3549 11.3333 30.5102 11.4885C30.6656 11.6437 30.7888 11.828 30.8729 12.0309C30.9569 12.2338 31.0001 12.4513 31 12.6709V29.3273C31.0002 29.5469 30.9572 29.7645 30.8732 29.9675C30.7893 30.1705 30.6662 30.3549 30.5109 30.5103C30.3556 30.6656 30.1713 30.7889 29.9683 30.8729C29.7654 30.9569 29.5478 31.0001 29.3282 31H12.6709C12.4514 31 12.2341 30.9567 12.0313 30.8727C11.8285 30.7887 11.6442 30.6655 11.4891 30.5103C11.3339 30.355 11.2108 30.1707 11.1269 29.9679C11.043 29.7651 10.9999 29.5477 11 29.3282V12.6709ZM18.9164 18.6255H21.6245V19.9855C22.0155 19.2036 23.0155 18.5 24.5182 18.5C27.3991 18.5 28.0818 20.0573 28.0818 22.9145V28.2073H25.1664V23.5655C25.1664 21.9382 24.7755 21.02 23.7827 21.02C22.4055 21.02 21.8327 22.01 21.8327 23.5655V28.2073H18.9164V18.6255ZM13.9164 28.0827H16.8327V18.5H13.9164V28.0827ZM17.25 15.3745C17.2555 15.6242 17.2111 15.8725 17.1193 16.1048C17.0276 16.3371 16.8903 16.5488 16.7157 16.7273C16.541 16.9058 16.3325 17.0477 16.1022 17.1446C15.872 17.2414 15.6248 17.2913 15.375 17.2913C15.1252 17.2913 14.878 17.2414 14.6478 17.1446C14.4175 17.0477 14.209 16.9058 14.0343 16.7273C13.8597 16.5488 13.7224 16.3371 13.6307 16.1048C13.5389 15.8725 13.4945 15.6242 13.5 15.3745C13.5108 14.8844 13.7131 14.418 14.0635 14.0752C14.414 13.7323 14.8847 13.5404 15.375 13.5404C15.8653 13.5404 16.336 13.7323 16.6865 14.0752C17.0369 14.418 17.2392 14.8844 17.25 15.3745Z" fill="white"/>
</svg>
