<svg width="42" height="42" viewBox="0 0 42 42" fill="none" xmlns="http://www.w3.org/2000/svg">
<circle cx="21" cy="21" r="21" fill="#212121"/>
<path d="M33.7059 13.3724C32.7973 13.7733 31.8213 14.0441 30.7953 14.1666C31.854 13.5358 32.646 12.5429 33.0237 11.3733C32.029 11.9616 30.9404 12.3757 29.8051 12.5977C29.0417 11.786 28.0305 11.248 26.9286 11.0672C25.8267 10.8864 24.6956 11.0729 23.7111 11.5978C22.7265 12.1228 21.9435 12.9567 21.4837 13.9701C21.0238 14.9836 20.9129 16.1199 21.168 17.2026C19.1525 17.1018 17.1808 16.5802 15.3809 15.6715C13.581 14.7628 11.9931 13.4874 10.7203 11.928C10.285 12.6757 10.0348 13.5425 10.0348 14.4656C10.0343 15.2967 10.2398 16.115 10.6331 16.848C11.0264 17.581 11.5952 18.2059 12.2893 18.6675C11.4844 18.642 10.6973 18.4254 9.99341 18.0358V18.1008C9.99333 19.2664 10.3982 20.3961 11.1394 21.2982C11.8805 22.2004 12.9123 22.8194 14.0596 23.0503C13.3129 23.2515 12.5301 23.2811 11.7702 23.137C12.0939 24.1399 12.7245 25.0169 13.5736 25.6452C14.4227 26.2735 15.4479 26.6217 16.5056 26.641C14.71 28.0446 12.4926 28.806 10.2099 28.8026C9.80559 28.8027 9.40158 28.7792 9 28.7322C11.317 30.2157 14.0142 31.003 16.7689 31C26.0937 31 31.1913 23.3092 31.1913 16.6391C31.1913 16.4224 31.1859 16.2036 31.1761 15.9869C32.1677 15.2728 33.0236 14.3886 33.7037 13.3756L33.7059 13.3724Z" fill="white"/>
</svg>
